<svg viewBox="-15 -18 60 35" focusable="false" class="chakra-icon css-7ljumx"><g fill="none" xmlns="http://www.w3.org/2000/svg"><path d="M -30.25986 -12.4418 C -30.25986 -10.453570000000001 -31.87163 -8.841800000000001 -33.85986 -8.841800000000001 C -35.84809 -8.841800000000001 -37.45986 -10.453570000000001 -37.45986 -12.4418 C -37.45986 -13.39658 -37.08058 -14.31225 -36.40544 -14.987380000000002 C -35.730309999999996 -15.662510000000001 -34.81463 -16.041800000000002 -33.85986 -16.041800000000002 C -32.90508 -16.041800000000002 -31.98941 -15.662520000000002 -31.314279999999997 -14.987380000000002 C -30.639149999999997 -14.312250000000002 -30.259859999999996 -13.396570000000002 -30.259859999999996 -12.4418 z M 49.66014 -12.5718 C 49.66014 -11.169 48.52294 -10.0318 47.12014 -10.0318 C 45.71734 -10.0318 44.58014 -11.169 44.58014 -12.5718 C 44.58014 -13.974599999999999 45.71734 -15.111799999999999 47.12014 -15.111799999999999 C 48.52294 -15.111799999999999 49.66014 -13.974599999999999 49.66014 -12.5718 z M -73.33986 4.9282 L -68.13986 -14.431799999999999 C -68.09912 -14.580219999999999 -67.96376 -14.682759999999998 -67.80986 -14.681799999999999 L -61.66986 -14.6718 C -61.56284 -14.67024 -61.46279 -14.61838 -61.39984 -14.53181 C -61.33689 -14.44525 -61.318369999999994 -14.33409 -61.34986 -14.2318 L -70.41986 15.278200000000002 C -70.46321 15.419120000000001 -70.59244 15.516040000000002 -70.73986 15.518200000000002 L -76.88986 15.608200000000002 C -77.04098 15.610430000000003 -77.17543 15.512650000000002 -77.21986 15.368200000000002 L -86.22986 -14.261799999999997 C -86.2576 -14.362759999999998 -86.23728 -14.470879999999998 -86.17477 -14.554869999999998 C -86.11225999999999 -14.638869999999997 -86.01453 -14.689379999999998 -85.90986 -14.691799999999997 L -79.61985999999999 -14.611799999999997 C -79.46596 -14.612759999999996 -79.33059999999999 -14.510219999999997 -79.28985999999999 -14.361799999999997 L -73.99985999999998 4.928200000000002 C -73.96223999999998 5.079850000000002 -73.82610999999999 5.186350000000002 -73.66985999999999 5.186350000000002 C -73.51360999999999 5.186350000000002 -73.37747999999999 5.079860000000002 -73.33985999999999 4.928200000000002 z M 25.09014 12.5782 L 39.80014 12.538200000000002 C 40.026579999999996 12.538200000000002 40.210139999999996 12.721760000000002 40.210139999999996 12.948200000000002 L 40.19013999999999 15.168200000000002 C 40.19013999999999 15.394640000000003 40.00657999999999 15.578200000000002 39.780139999999996 15.578200000000002 L 21.590139999999995 15.578200000000002 C 21.363699999999994 15.578200000000002 21.180139999999994 15.394640000000003 21.180139999999994 15.168200000000002 L 21.180139999999994 -14.261799999999997 C 21.180139999999994 -14.488239999999998 21.363699999999994 -14.671799999999998 21.590139999999995 -14.671799999999998 L 24.270139999999994 -14.671799999999998 C 24.496579999999994 -14.671799999999998 24.680139999999994 -14.488239999999998 24.680139999999994 -14.261799999999997 L 24.680139999999994 12.168200000000002 C 24.680139999999994 12.394640000000003 24.863699999999994 12.578200000000002 25.090139999999995 12.578200000000002 z M 80.98014 -2.4318 C 80.92681 1.0615299999999999 80.90681000000001 4.58153 80.92014 8.1282 C 80.93014000000001 11.1382 81.95014 12.7882 85.11014 12.5882 C 85.37547 12.5718 85.63642 12.66173 85.83532 12.83811 C 86.03421999999999 13.01449 86.15469999999999 13.26281 86.17013999999999 13.5282 L 86.24013999999998 14.6982 C 86.25748999999998 14.98268 86.15383999999999 15.261099999999999 85.95522999999999 15.46354 C 85.75661999999998 15.66597 85.48191999999999 15.77317 85.20013999999999 15.7582 C 80.30013999999998 15.53153 77.79014 13.86487 77.67013999999999 10.7582 C 77.49680999999998 6.364870000000001 77.41346999999999 1.9715299999999996 77.42013999999999 -2.4217999999999993 C 77.42016999999998 -2.9701999999999993 76.97851999999999 -3.4163199999999994 76.43014 -3.4217999999999993 L 75.41014 -3.431799999999999 C 74.98545 -3.431999999999999 74.60728 -3.705569999999999 74.47014 -4.111799999999999 C 73.83014 -5.991799999999999 74.42681 -6.778469999999999 76.26014 -6.471799999999998 C 76.54986000000001 -6.4218199999999985 76.84689 -6.501849999999998 77.07227 -6.690629999999998 C 77.29765 -6.879409999999998 77.42854 -7.157799999999998 77.43014000000001 -7.451799999999998 L 77.43014000000001 -10.931799999999997 C 77.43278000000001 -11.197019999999997 77.54068000000001 -11.450329999999997 77.73009 -11.635989999999998 C 77.9195 -11.821649999999998 78.17492 -11.924459999999998 78.44014 -11.921799999999998 L 79.93014 -11.921799999999998 C 80.48241999999999 -11.921799999999998 80.93014 -11.474079999999997 80.93014 -10.921799999999998 L 80.93014 -7.4217999999999975 C 80.93014 -6.869519999999998 81.37786 -6.4217999999999975 81.93014 -6.4217999999999975 L 85.18014 -6.4217999999999975 C 85.73241999999999 -6.4217999999999975 86.18014 -5.974079999999997 86.18014 -5.4217999999999975 L 86.18014 -4.4217999999999975 C 86.18014 -3.8695199999999974 85.73241999999999 -3.4217999999999975 85.18014 -3.4217999999999975 L 81.98013999999999 -3.4217999999999975 C 81.43173999999999 -3.4218299999999977 80.98562 -2.9801799999999976 80.98013999999999 -2.4317999999999973 z M -30.81986 15.1582 C -30.81986 15.39568 -31.012379999999997 15.5882 -31.249859999999998 15.5882 L -36.64986 15.5882 C -36.887339999999995 15.5882 -37.07986 15.39568 -37.07986 15.1582 L -37.07986 -6.4818 C -37.07986 -6.7192799999999995 -36.887339999999995 -6.9117999999999995 -36.64986 -6.9117999999999995 L -31.249859999999998 -6.9117999999999995 C -31.012379999999997 -6.9117999999999995 -30.81986 -6.7192799999999995 -30.81986 -6.4818 z M -7.50986 7.5682 C -7.20697 7.61546 -6.942489999999999 7.79905 -6.7922899999999995 8.06628 C -6.64209 8.33352 -6.6227599999999995 8.65488 -6.739859999999999 8.9382 C -11.959859999999999 21.4682 -28.84986 16.2882 -26.92986 2.2382 C -25.33986 -9.4618 -10.679860000000001 -10.381799999999998 -6.599860000000003 0.13819999999999988 C -6.4860900000000035 0.4263599999999999 -6.512300000000003 0.7509799999999999 -6.670830000000003 1.01715 C -6.829360000000003 1.28332 -7.102300000000003 1.46099 -7.409860000000003 1.4982 L -12.039860000000003 2.0482 C -12.459520000000003 2.10136 -12.865380000000002 1.88437 -13.049860000000002 1.5082 C -17.329860000000004 -6.921799999999999 -23.779860000000003 4.0782 -19.159860000000002 8.8482 C -17.05319 11.02153 -15.029860000000003 10.51487 -13.089860000000002 7.328200000000001 C -12.87784 6.98324 -12.480300000000002 6.79825 -12.079860000000002 6.858200000000001 z M 55.30014 8.8482 C 57.16014 8.2082 58.12347 8.6782 58.19014 10.2582 C 58.1964 10.49651 58.29241 10.727640000000001 58.46014 10.9082 C 63.450140000000005 16.2182 72.19014 9.3282 64.16014 6.7582 C 59.81014 5.3582 53.90014 3.7582000000000004 54.820139999999995 -1.351799999999999 C 56.15013999999999 -8.7618 70.16014 -8.2518 70.88014 -1.011799999999999 C 70.90769 -0.7416699999999989 70.82311 -0.47187999999999897 70.64583 -0.2644199999999989 C 70.46855000000001 -0.05695999999999887 70.21381000000001 0.07033000000000111 69.94014 0.08820000000000111 L 68.56014 0.16820000000000113 C 68.11107 0.19758000000000112 67.69769000000001 -0.07663999999999888 67.55014 -0.5017999999999989 C 66.01013999999999 -4.971799999999998 58.37014 -4.861799999999999 57.99014 0.05820000000000114 C 57.95482 0.4915100000000011 58.20632 0.8971600000000012 58.610139999999994 1.0582000000000011 C 62.51013999999999 2.618200000000001 71.30014 4.018200000000001 71.01013999999999 9.698200000000002 C 70.57014 18.1582 54.59013999999999 17.2982 54.63014 9.788200000000002 C 54.628789999999995 9.363610000000001 54.89834 8.985440000000002 55.30014 8.848200000000002 z M 48.71694 15.1023 C 48.71777 15.35079 48.51703 15.55292 48.26854 15.553799999999999 L 45.80854 15.562399999999998 C 45.68919 15.562829999999998 45.57456 15.515819999999998 45.48987 15.431729999999998 C 45.40518 15.347639999999998 45.35736 15.233349999999998 45.35694 15.113999999999999 L 45.28334 -5.9658999999999995 C 45.28251 -6.21439 45.483250000000005 -6.416519999999999 45.73174 -6.4174 L 48.19174 -6.426 C 48.31109 -6.42643 48.425720000000005 -6.3794200000000005 48.51041 -6.29533 C 48.5951 -6.21124 48.642920000000004 -6.09695 48.64334 -5.9776 z M -40.98606 6.2769 C -40.96876 8.75397 -41.93619 11.13646 -43.67551 12.90024 C -45.414840000000005 14.66402 -47.783590000000004 15.66461 -50.26066 15.6819 L -51.980560000000004 15.693900000000001 C -57.138760000000005 15.729920000000002 -61.34951 11.5776 -61.385560000000005 6.419400000000001 L -61.41366000000001 2.3995000000000015 C -61.430960000000006 -0.07756999999999836 -60.463530000000006 -2.4600599999999986 -58.72421000000001 -4.223839999999998 C -56.984880000000004 -5.987619999999998 -54.616130000000005 -6.988209999999999 -52.13906000000001 -7.005499999999998 L -50.419160000000005 -7.017499999999997 C -45.260960000000004 -7.053519999999997 -41.05021000000001 -2.9011999999999976 -41.014160000000004 2.2570000000000023 z M -48.47813 8.48686 C -47.74098 7.39677 -47.32078 5.91423 -47.30997 4.3654 C -47.29914 2.8165700000000005 -47.69859 1.3283 -48.42044 0.22801000000000027 C -49.14229 -0.8722899999999998 -50.1274 -1.4944799999999998 -51.15907 -1.5016999999999998 C -52.19074 -1.5089099999999998 -53.18446 -0.9005599999999998 -53.92161 0.18954000000000026 C -54.65876 1.2796300000000003 -55.07896 2.7621700000000002 -55.08977 4.311 C -55.1006 5.85983 -54.70115 7.3481000000000005 -53.9793 8.44839 C -53.25745 9.54869 -52.27234 10.17088 -51.24067 10.1781 C -50.209 10.185310000000001 -49.21528 9.57696 -48.47813 8.48686 z M 3.16014 8.2382 C 5.50681 10.884870000000001 8.133469999999999 10.87153 11.040140000000001 8.198200000000002 C 11.4357 7.836990000000002 12.0486 7.8546200000000015 12.430140000000002 8.2382 L 15.190140000000001 11.028200000000002 C 15.376830000000002 11.218620000000001 15.479740000000001 11.475720000000003 15.475980000000002 11.742370000000001 C 15.472220000000002 12.009020000000001 15.36212 12.26312 15.170140000000002 12.448200000000002 C 12.736810000000002 14.814870000000003 9.826810000000002 15.941530000000002 6.440140000000001 15.828200000000002 C -2.849859999999998 15.528200000000002 -5.739859999999998 7.408200000000003 -3.469859999999999 -0.38179999999999836 C -1.0098599999999989 -8.811799999999998 10.63014 -9.211799999999998 14.620140000000001 -2.391799999999998 C 15.846810000000001 -0.29846999999999824 16.34681 2.3815300000000015 16.12014 5.648200000000001 C 16.07836 6.174270000000001 15.64265 6.579480000000001 15.12014 6.578200000000001 L 3.9101399999999984 6.578200000000001 C 2.4234699999999982 6.578200000000001 2.1734699999999982 7.131530000000001 3.1601399999999984 8.2382 z M 2.87014 0.6782 C 2.7356700000000003 0.9863 2.76499 1.34135 2.9482 1.62321 C 3.13141 1.90507 3.44398 2.07601 3.78014 2.0782 L 8.14014 2.0782 C 8.46345 2.07691 8.76619 1.9193999999999998 8.95279 1.6553699999999998 C 9.13939 1.3913499999999999 9.18684 1.0533899999999998 9.08014 0.7481999999999998 C 8.83347 0.05486999999999975 8.38681 -0.43847000000000014 7.74014 -0.7318000000000002 C 5.37347 -1.8051300000000001 3.75014 -1.3351300000000004 2.87014 0.6781999999999997 z" fill="currentColor"></path></g></svg>